
<global>
ampeg_attack=0.01
ampeg_release=0.25
</global>

<group>
amp_veltrack=0
ampeg_release=0.35
group_label=Group
xf_cccurve=gain
xfin_hicc1=127
xfout_hicc1=127
xfout_locc1=127

<region>
hivel=127
key=a#1
lovel=1
sample=Bass_multiphonics_FF_A#1.opus
</region>

<region>
hikey=a#2
hivel=127
lokey=a2
lovel=1
offset=6345
pitch_keycenter=a#2
sample=Bass_multiphonics_FF_A#2.opus
</region>

<region>
hikey=A#3
hivel=127
lokey=a3
lovel=1
offset=30200
pitch_keycenter=A#3
sample=Bass_multiphonics_FF_A#3.opus
</region>

<region>
hikey=c2
hivel=127
lokey=b1
lovel=1
offset=971
pitch_keycenter=c2
sample=Bass_multiphonics_FF_C2.opus
</region>

<region>
hikey=c3
hivel=127
lokey=b2
lovel=1
pitch_keycenter=c3
sample=Bass_multiphonics_FF_C3.opus
</region>

<region>
hikey=d2
hivel=127
lokey=c#2
lovel=1
offset=326
pitch_keycenter=d2
sample=Bass_multiphonics_FF_D2.opus
</region>

<region>
hikey=d3
hivel=127
lokey=c#3
lovel=1
offset=508
pitch_keycenter=d3
sample=Bass_multiphonics_FF_D3.opus
</region>

<region>
hikey=e2
hivel=127
lokey=d#2
lovel=1
offset=2934
pitch_keycenter=e2
sample=Bass_multiphonics_FF_E2.opus
</region>

<region>
hikey=e3
hivel=127
lokey=d#3
lovel=1
offset=5381
pitch_keycenter=e3
sample=Bass_multiphonics_FF_E3.opus
</region>

<region>
hikey=f#2
hivel=127
lokey=f2
lovel=1
pitch_keycenter=f#2
sample=Bass_multiphonics_FF_F#2.opus
</region>

<region>
hikey=f#3
hivel=127
lokey=f3
lovel=1
offset=12222
pitch_keycenter=f#3
sample=Bass_multiphonics_FF_F#3.opus
</region>

<region>
hikey=g#2
hivel=127
lokey=g2
lovel=1
pitch_keycenter=g#2
sample=Bass_multiphonics_FF_G#2.opus
</region>

<region>
hikey=g#3
hivel=127
lokey=g3
lovel=1
offset=1168
pitch_keycenter=g#3
sample=Bass_multiphonics_FF_G#3.opus
</region>
</group>